<svg xmlns="http://www.w3.org/2000/svg" xmlns:xlink="http://www.w3.org/1999/xlink" width="124.94" height="17" viewBox="0 0 124.94 17"><defs><style>.a{fill:#f1f5f8;}.b{clip-path:url(#a);}.c{clip-path:url(#b);}.d{clip-path:url(#c);}.e{clip-path:url(#d);}.f{clip-path:url(#e);}.g{clip-path:url(#f);}.h{clip-path:url(#g);}</style><clipPath id="a"><path class="a" d="M7.56,4.11A1.72,1.72,0,0,1,9.43,1.46,7.49,7.49,0,0,0,9.85.11,8.56,8.56,0,0,0,8.5,0,8.46,8.46,0,0,0,4.23,1.15,8.37,8.37,0,0,0,5.81,5.3,7.48,7.48,0,0,0,7.56,4.11Z"/></clipPath><clipPath id="b"><path class="a" d="M17,8.47A9.2,9.2,0,0,1,15.94,9h0a1.61,1.61,0,0,1-3.11.61H12.61a9.28,9.28,0,0,1-1.2-.08,17.88,17.88,0,0,0,.11,6.94A8.5,8.5,0,0,0,17,8.5v0Z"/></clipPath><clipPath id="c"><path class="a" d="M12.61,8.76h0.12a1.61,1.61,0,0,1,3-.6,8.39,8.39,0,0,0,1.22-.61,8.48,8.48,0,0,0-2.52-5.14,17.47,17.47,0,0,0-2.85,6.28A8.46,8.46,0,0,0,12.61,8.76Z"/></clipPath><clipPath id="d"><path class="a" d="M10.61,0.27a8.19,8.19,0,0,1-.5,1.58,1.72,1.72,0,0,1-2,2.78A8.19,8.19,0,0,1,6.31,5.92,8.49,8.49,0,0,0,7.47,7,1.15,1.15,0,0,1,9.15,8a8.35,8.35,0,0,0,1.53.52,18.37,18.37,0,0,1,3.06-6.73A8.47,8.47,0,0,0,10.61.27Z"/></clipPath><clipPath id="e"><path class="a" d="M10.52,9.34a9.16,9.16,0,0,1-1.65-.56A1.15,1.15,0,0,1,6.92,7.61,9.32,9.32,0,0,1,5.53,6.27a8.33,8.33,0,0,1-1.78.48l-0.33,0a0.91,0.91,0,0,1-1.54,0,8.22,8.22,0,0,1-1.65-.3A8.52,8.52,0,0,0,0,8.5c0,0.11,0,.23,0,0.34a12.63,12.63,0,0,1,4.36,1.54,1.61,1.61,0,0,1,2.5,1.89,12.76,12.76,0,0,1,3,4.61q0.37-.06.74-0.16A18.82,18.82,0,0,1,10.52,9.34Z"/></clipPath><clipPath id="f"><path class="a" d="M2.51,5.43a0.91,0.91,0,0,1,1,.57L3.63,6A7.52,7.52,0,0,0,5,5.63a9.19,9.19,0,0,1-1.57-4,8.52,8.52,0,0,0-3,4.13A7.41,7.41,0,0,0,1.79,6,0.91,0.91,0,0,1,2.51,5.43Z"/></clipPath><clipPath id="g"><path class="a" d="M6.15,13a1.61,1.61,0,0,1-2.31-1.74A11.59,11.59,0,0,0,.12,9.92,8.5,8.5,0,0,0,8.5,17H8.83A11.72,11.72,0,0,0,6.15,13Z"/></clipPath></defs><title>logo-nav_main</title><path class="a" d="M7.56,4.11A1.72,1.72,0,0,1,9.43,1.46,7.49,7.49,0,0,0,9.85.11,8.56,8.56,0,0,0,8.5,0,8.46,8.46,0,0,0,4.23,1.15,8.37,8.37,0,0,0,5.81,5.3,7.48,7.48,0,0,0,7.56,4.11Z"/><g class="b"><rect class="a" x="4.23" width="5.62" height="0.32"/><rect class="a" x="4.23" y="0.32" width="5.62" height="0.35"/><rect class="a" x="4.23" y="0.68" width="5.62" height="0.35"/><rect class="a" x="4.23" y="1.03" width="5.62" height="0.35"/><rect class="a" x="4.23" y="1.39" width="5.62" height="0.35"/><rect class="a" x="4.23" y="1.74" width="5.62" height="0.35"/><rect class="a" x="4.23" y="2.1" width="5.62" height="0.35"/><rect class="a" x="4.23" y="2.45" width="5.62" height="0.35"/><rect class="a" x="4.23" y="2.81" width="5.62" height="0.35"/><rect class="a" x="4.23" y="3.16" width="5.62" height="0.35"/><rect class="a" x="4.23" y="3.52" width="5.62" height="0.35"/><rect class="a" x="4.23" y="3.87" width="5.62" height="0.35"/><rect class="a" x="4.23" y="4.23" width="5.62" height="0.35"/><rect class="a" x="4.23" y="4.58" width="5.62" height="0.35"/><rect class="a" x="4.23" y="4.94" width="5.62" height="0.35"/><rect class="a" x="4.23" y="5.29" width="5.62" height="0.01"/></g><path class="a" d="M17,8.47A9.2,9.2,0,0,1,15.94,9h0a1.61,1.61,0,0,1-3.11.61H12.61a9.28,9.28,0,0,1-1.2-.08,17.88,17.88,0,0,0,.11,6.94A8.5,8.5,0,0,0,17,8.5v0Z"/><g class="c"><rect class="a" x="11.12" y="8.47" width="5.88" height="0.02"/><rect class="a" x="11.12" y="8.49" width="5.88" height="0.35"/><rect class="a" x="11.12" y="8.84" width="5.88" height="0.35"/><rect class="a" x="11.12" y="9.2" width="5.88" height="0.35"/><rect class="a" x="11.12" y="9.55" width="5.88" height="0.35"/><rect class="a" x="11.12" y="9.91" width="5.88" height="0.35"/><rect class="a" x="11.12" y="10.26" width="5.88" height="0.35"/><rect class="a" x="11.12" y="10.62" width="5.88" height="0.35"/><rect class="a" x="11.12" y="10.97" width="5.88" height="0.35"/><rect class="a" x="11.12" y="11.33" width="5.88" height="0.35"/><rect class="a" x="11.12" y="11.68" width="5.88" height="0.35"/><rect class="a" x="11.12" y="12.04" width="5.88" height="0.35"/><rect class="a" x="11.12" y="12.39" width="5.88" height="0.35"/><rect class="a" x="11.12" y="12.75" width="5.88" height="0.35"/><rect class="a" x="11.12" y="13.1" width="5.88" height="0.35"/><rect class="a" x="11.12" y="13.46" width="5.88" height="0.35"/><rect class="a" x="11.12" y="13.81" width="5.88" height="0.35"/><rect class="a" x="11.12" y="14.17" width="5.88" height="0.35"/><rect class="a" x="11.12" y="14.52" width="5.88" height="0.35"/><rect class="a" x="11.12" y="14.88" width="5.88" height="0.35"/><rect class="a" x="11.12" y="15.23" width="5.88" height="0.35"/><rect class="a" x="11.12" y="15.59" width="5.88" height="0.35"/><rect class="a" x="11.12" y="15.94" width="5.88" height="0.35"/><rect class="a" x="11.12" y="16.29" width="5.88" height="0.15"/></g><path class="a" d="M12.61,8.76h0.12a1.61,1.61,0,0,1,3-.6,8.39,8.39,0,0,0,1.22-.61,8.48,8.48,0,0,0-2.52-5.14,17.47,17.47,0,0,0-2.85,6.28A8.46,8.46,0,0,0,12.61,8.76Z"/><g class="d"><rect class="a" x="11.58" y="2.41" width="5.37" height="0.04"/><rect class="a" x="11.58" y="2.45" width="5.37" height="0.35"/><rect class="a" x="11.58" y="2.81" width="5.37" height="0.35"/><rect class="a" x="11.58" y="3.16" width="5.37" height="0.35"/><rect class="a" x="11.58" y="3.52" width="5.37" height="0.35"/><rect class="a" x="11.58" y="3.87" width="5.37" height="0.35"/><rect class="a" x="11.58" y="4.23" width="5.37" height="0.35"/><rect class="a" x="11.58" y="4.58" width="5.37" height="0.35"/><rect class="a" x="11.58" y="4.94" width="5.37" height="0.35"/><rect class="a" x="11.58" y="5.29" width="5.37" height="0.35"/><rect class="a" x="11.58" y="5.65" width="5.37" height="0.35"/><rect class="a" x="11.58" y="6" width="5.37" height="0.35"/><rect class="a" x="11.58" y="6.36" width="5.37" height="0.35"/><rect class="a" x="11.58" y="6.71" width="5.37" height="0.35"/><rect class="a" x="11.58" y="7.07" width="5.37" height="0.35"/><rect class="a" x="11.58" y="7.42" width="5.37" height="0.35"/><rect class="a" x="11.58" y="7.78" width="5.37" height="0.35"/><rect class="a" x="11.58" y="8.13" width="5.37" height="0.35"/><rect class="a" x="11.58" y="8.49" width="5.37" height="0.27"/></g><path class="a" d="M10.61,0.27a8.19,8.19,0,0,1-.5,1.58,1.72,1.72,0,0,1-2,2.78A8.19,8.19,0,0,1,6.31,5.92,8.49,8.49,0,0,0,7.47,7,1.15,1.15,0,0,1,9.15,8a8.35,8.35,0,0,0,1.53.52,18.37,18.37,0,0,1,3.06-6.73A8.47,8.47,0,0,0,10.61.27Z"/><g class="e"><rect class="a" x="6.31" y="0.27" width="7.43" height="0.06"/><rect class="a" x="6.31" y="0.32" width="7.43" height="0.35"/><rect class="a" x="6.31" y="0.68" width="7.43" height="0.35"/><rect class="a" x="6.31" y="1.03" width="7.43" height="0.35"/><rect class="a" x="6.31" y="1.39" width="7.43" height="0.35"/><rect class="a" x="6.31" y="1.74" width="7.43" height="0.35"/><rect class="a" x="6.31" y="2.1" width="7.43" height="0.35"/><rect class="a" x="6.31" y="2.45" width="7.43" height="0.35"/><rect class="a" x="6.31" y="2.81" width="7.43" height="0.35"/><rect class="a" x="6.31" y="3.16" width="7.43" height="0.35"/><rect class="a" x="6.31" y="3.52" width="7.43" height="0.35"/><rect class="a" x="6.31" y="3.87" width="7.43" height="0.35"/><rect class="a" x="6.31" y="4.23" width="7.43" height="0.35"/><rect class="a" x="6.31" y="4.58" width="7.43" height="0.35"/><rect class="a" x="6.31" y="4.94" width="7.43" height="0.35"/><rect class="a" x="6.31" y="5.29" width="7.43" height="0.35"/><rect class="a" x="6.31" y="5.65" width="7.43" height="0.35"/><rect class="a" x="6.31" y="6" width="7.43" height="0.35"/><rect class="a" x="6.31" y="6.36" width="7.43" height="0.35"/><rect class="a" x="6.31" y="6.71" width="7.43" height="0.35"/><rect class="a" x="6.31" y="7.07" width="7.43" height="0.35"/><rect class="a" x="6.31" y="7.42" width="7.43" height="0.35"/><rect class="a" x="6.31" y="7.78" width="7.43" height="0.35"/><rect class="a" x="6.31" y="8.13" width="7.43" height="0.35"/><rect class="a" x="6.31" y="8.49" width="7.43" height="0.05"/></g><path class="a" d="M10.52,9.34a9.16,9.16,0,0,1-1.65-.56A1.15,1.15,0,0,1,6.92,7.61,9.32,9.32,0,0,1,5.53,6.27a8.33,8.33,0,0,1-1.78.48l-0.33,0a0.91,0.91,0,0,1-1.54,0,8.22,8.22,0,0,1-1.65-.3A8.52,8.52,0,0,0,0,8.5c0,0.11,0,.23,0,0.34a12.63,12.63,0,0,1,4.36,1.54,1.61,1.61,0,0,1,2.5,1.89,12.76,12.76,0,0,1,3,4.61q0.37-.06.74-0.16A18.82,18.82,0,0,1,10.52,9.34Z"/><g class="f"><rect class="a" y="6.27" width="10.65" height="0.09"/><rect class="a" y="6.36" width="10.65" height="0.35"/><rect class="a" y="6.71" width="10.65" height="0.35"/><rect class="a" y="7.07" width="10.65" height="0.35"/><rect class="a" y="7.42" width="10.65" height="0.35"/><rect class="a" y="7.78" width="10.65" height="0.35"/><rect class="a" y="8.13" width="10.65" height="0.35"/><rect class="a" y="8.49" width="10.65" height="0.35"/><rect class="a" y="8.84" width="10.65" height="0.35"/><rect class="a" y="9.2" width="10.65" height="0.35"/><rect class="a" y="9.55" width="10.65" height="0.35"/><rect class="a" y="9.91" width="10.65" height="0.35"/><rect class="a" y="10.26" width="10.65" height="0.35"/><rect class="a" y="10.62" width="10.65" height="0.35"/><rect class="a" y="10.97" width="10.65" height="0.35"/><rect class="a" y="11.33" width="10.65" height="0.35"/><rect class="a" y="11.68" width="10.65" height="0.35"/><rect class="a" y="12.04" width="10.65" height="0.35"/><rect class="a" y="12.39" width="10.65" height="0.35"/><rect class="a" y="12.75" width="10.65" height="0.35"/><rect class="a" y="13.1" width="10.65" height="0.35"/><rect class="a" y="13.46" width="10.65" height="0.35"/><rect class="a" y="13.81" width="10.65" height="0.35"/><rect class="a" y="14.17" width="10.65" height="0.35"/><rect class="a" y="14.52" width="10.65" height="0.35"/><rect class="a" y="14.88" width="10.65" height="0.35"/><rect class="a" y="15.23" width="10.65" height="0.35"/><rect class="a" y="15.59" width="10.65" height="0.35"/><rect class="a" y="15.94" width="10.65" height="0.35"/><rect class="a" y="16.29" width="10.65" height="0.35"/><rect class="a" y="16.65" width="10.65" height="0.23"/></g><path class="a" d="M2.51,5.43a0.91,0.91,0,0,1,1,.57L3.63,6A7.52,7.52,0,0,0,5,5.63a9.19,9.19,0,0,1-1.57-4,8.52,8.52,0,0,0-3,4.13A7.41,7.41,0,0,0,1.79,6,0.91,0.91,0,0,1,2.51,5.43Z"/><g class="g"><rect class="a" x="0.45" y="1.65" width="4.59" height="0.09"/><rect class="a" x="0.45" y="1.74" width="4.59" height="0.35"/><rect class="a" x="0.45" y="2.1" width="4.59" height="0.35"/><rect class="a" x="0.45" y="2.45" width="4.59" height="0.35"/><rect class="a" x="0.45" y="2.81" width="4.59" height="0.35"/><rect class="a" x="0.45" y="3.16" width="4.59" height="0.35"/><rect class="a" x="0.45" y="3.52" width="4.59" height="0.35"/><rect class="a" x="0.45" y="3.87" width="4.59" height="0.35"/><rect class="a" x="0.45" y="4.23" width="4.59" height="0.35"/><rect class="a" x="0.45" y="4.58" width="4.59" height="0.35"/><rect class="a" x="0.45" y="4.94" width="4.59" height="0.35"/><rect class="a" x="0.45" y="5.29" width="4.59" height="0.35"/><rect class="a" x="0.45" y="5.65" width="4.59" height="0.35"/><rect class="a" x="0.45" y="6" width="4.59" height="0.03"/></g><path class="a" d="M6.15,13a1.61,1.61,0,0,1-2.31-1.74A11.59,11.59,0,0,0,.12,9.92,8.5,8.5,0,0,0,8.5,17H8.83A11.72,11.72,0,0,0,6.15,13Z"/><g class="h"><rect class="a" x="0.12" y="9.92" width="8.71" height="0.34"/><rect class="a" x="0.12" y="10.26" width="8.71" height="0.35"/><rect class="a" x="0.12" y="10.62" width="8.71" height="0.35"/><rect class="a" x="0.12" y="10.97" width="8.71" height="0.35"/><rect class="a" x="0.12" y="11.33" width="8.71" height="0.35"/><rect class="a" x="0.12" y="11.68" width="8.71" height="0.35"/><rect class="a" x="0.12" y="12.04" width="8.71" height="0.35"/><rect class="a" x="0.12" y="12.39" width="8.71" height="0.35"/><rect class="a" x="0.12" y="12.75" width="8.71" height="0.35"/><rect class="a" x="0.12" y="13.1" width="8.71" height="0.35"/><rect class="a" x="0.12" y="13.46" width="8.71" height="0.35"/><rect class="a" x="0.12" y="13.81" width="8.71" height="0.35"/><rect class="a" x="0.12" y="14.17" width="8.71" height="0.35"/><rect class="a" x="0.12" y="14.52" width="8.71" height="0.35"/><rect class="a" x="0.12" y="14.88" width="8.71" height="0.35"/><rect class="a" x="0.12" y="15.23" width="8.71" height="0.35"/><rect class="a" x="0.12" y="15.59" width="8.71" height="0.35"/><rect class="a" x="0.12" y="15.94" width="8.71" height="0.35"/><rect class="a" x="0.12" y="16.29" width="8.71" height="0.35"/><rect class="a" x="0.12" y="16.65" width="8.71" height="0.35"/></g><path class="a" d="M22.39,14.2l2.09-2.51a7.38,7.38,0,0,0,4.81,2c1.45,0,2.32-.57,2.32-1.52v0c0-.9-0.55-1.36-3.24-2C25.13,9.21,23,8.32,23,5.12v0c0-2.92,2.35-4.85,5.63-4.85a9.32,9.32,0,0,1,6,2L32.8,4.94a7.55,7.55,0,0,0-4.18-1.59c-1.36,0-2.07.62-2.07,1.4v0c0,1.06.69,1.4,3.47,2.12,3.26,0.85,5.1,2,5.1,4.83v0c0,3.2-2.44,5-5.91,5A10.24,10.24,0,0,1,22.39,14.2Z"/><path class="a" d="M38.21,0.45h6.58c3.84,0,6.16,2.28,6.16,5.56v0c0,3.72-2.9,5.66-6.51,5.66H41.75v4.83H38.21V0.45Zm6.35,8.12c1.77,0,2.81-1.06,2.81-2.44v0c0-1.59-1.1-2.44-2.87-2.44H41.75V8.57h2.81Z"/><path class="a" d="M53.57,0.45h3.54V6.82h6.53V0.45h3.54V16.55H63.64V10.09H57.11v6.46H53.57V0.45Z"/><path class="a" d="M71,0.45H83.18V3.6H74.56V6.87h7.59V10H74.56V13.4H83.3v3.15H71V0.45Z"/><path class="a" d="M86.45,0.45H93.8a6.41,6.41,0,0,1,4.69,1.63,5.05,5.05,0,0,1,1.38,3.68v0a5,5,0,0,1-3.45,5l3.93,5.75H96.22L92.77,11.4H90v5.15H86.45V0.45Zm7.13,7.82c1.72,0,2.71-.92,2.71-2.28v0c0-1.52-1.06-2.3-2.78-2.3H90V8.27h3.59Z"/><path class="a" d="M103.23,0.45h3.54V16.55h-3.54V0.45Z"/><path class="a" d="M110.08,8.55v0A8.18,8.18,0,0,1,118.48.18a8.3,8.3,0,0,1,6.35,2.48l-2.25,2.6a5.94,5.94,0,0,0-4.12-1.82,4.77,4.77,0,0,0-4.67,5v0a4.78,4.78,0,0,0,4.67,5.06,5.81,5.81,0,0,0,4.23-1.89l2.25,2.28a8.23,8.23,0,0,1-6.6,2.87A8.12,8.12,0,0,1,110.08,8.55Z"/></svg>